<svg xmlns="http://www.w3.org/2000/svg" viewBox="0 0 200 140">
  <defs>
    <clipPath id="flagClip">
      <rect x="6" y="6" width="188" height="128" rx="9" ry="9"/>
    </clipPath>
  </defs>
  <g clip-path="url(#flagClip)">
    <rect x="6" y="6" width="188" height="42.7" fill="#ce1126"/>
    <rect x="6" y="48.7" width="188" height="42.6" fill="#ffffff"/>
    <rect x="6" y="91.3" width="188" height="42.7" fill="#000000"/>
    <g transform="translate(100, 70) scale(0.5)">
      <ellipse cx="0" cy="0" rx="18" ry="16" fill="#c09300"/>
      <circle cx="0" cy="-18" r="8" fill="#c09300"/>
      <polygon points="0,-14 4,-10 0,-8" fill="#8b6900"/>
      <circle cx="2" cy="-19" r="1.5" fill="#000"/>
      <path d="M-18,0 Q-35,-10 -38,-2 Q-36,4 -20,6Z" fill="#c09300" stroke="#8b6900" stroke-width="0.8"/>
      <path d="M18,0 Q35,-10 38,-2 Q36,4 20,6Z" fill="#c09300" stroke="#8b6900" stroke-width="0.8"/>
      <path d="M-8,14 L-12,24 L-4,20 L0,26 L4,20 L12,24 L8,14Z" fill="#c09300" stroke="#8b6900" stroke-width="0.8"/>
      <rect x="-6" y="-5" width="12" height="14" rx="2" fill="#ce1126" stroke="#8b6900" stroke-width="0.8"/>
      <rect x="-6" y="-5" width="12" height="5" fill="#ce1126"/>
      <rect x="-6" y="0" width="12" height="4" fill="#ffffff"/>
      <rect x="-6" y="4" width="12" height="5" fill="#000"/>
    </g>
  </g>
  <rect x="6" y="6" width="188" height="128" rx="9" ry="9" fill="none" stroke="#1a2744" stroke-width="5" stroke-linejoin="round"/>
</svg>