<svg xmlns="http://www.w3.org/2000/svg" viewBox="0 0 200 140">
  <defs>
    <clipPath id="flagClip">
      <rect x="6" y="6" width="188" height="128" rx="9" ry="9"/>
    </clipPath>
  </defs>
  <g clip-path="url(#flagClip)">
    <rect x="6" y="6" width="188" height="42.7" fill="#ff9933"/>
    <rect x="6" y="48.7" width="188" height="42.6" fill="#ffffff"/>
    <rect x="6" y="91.3" width="188" height="42.7" fill="#138808"/>
    <circle cx="100" cy="70" r="15" fill="none" stroke="#000080" stroke-width="1.5"/>
    <circle cx="100" cy="70" r="2" fill="#000080"/>
    <g stroke="#000080" stroke-width="0.8">
      <line x1="100" y1="56" x2="100" y2="84"/>
      <line x1="86" y1="70" x2="114" y2="70"/>
      <line x1="90" y1="60" x2="110" y2="80"/>
      <line x1="110" y1="60" x2="90" y2="80"/>
      <line x1="93" y1="57" x2="107" y2="83"/>
      <line x1="107" y1="57" x2="93" y2="83"/>
      <line x1="87" y1="63" x2="113" y2="77"/>
      <line x1="113" y1="63" x2="87" y2="77"/>
      <line x1="88" y1="67" x2="112" y2="73"/>
      <line x1="112" y1="67" x2="88" y2="73"/>
      <line x1="97" y1="56" x2="103" y2="84"/>
      <line x1="103" y1="56" x2="97" y2="84"/>
    </g>
  </g>
  <rect x="6" y="6" width="188" height="128" rx="9" ry="9" fill="none" stroke="#1a2744" stroke-width="5" stroke-linejoin="round"/>
</svg>