<svg xmlns="http://www.w3.org/2000/svg" viewBox="0 0 200 140">
  <defs>
    <clipPath id="flagClip">
      <rect x="6" y="6" width="188" height="128" rx="9" ry="9"/>
    </clipPath>
  </defs>
  <g clip-path="url(#flagClip)">
    <rect x="6" y="6" width="188" height="128" fill="#ffffff"/>
    <!-- Taegeuk -->
    <circle cx="100" cy="70" r="21" fill="#cd2e3a"/>
    <path d="M79,70 A21,21 0 0,1 121,70" fill="#cd2e3a"/>
    <path d="M79,70 A21,21 0 0,0 121,70" fill="#0047a0"/>
    <circle cx="100" cy="80.5" r="10.5" fill="#cd2e3a"/>
    <circle cx="100" cy="59.5" r="10.5" fill="#0047a0"/>
    <!-- Trigrams -->
    <g transform="translate(100,70) rotate(-55)">
      <rect x="28" y="-7" width="19" height="3" rx="0.5" fill="#000"/>
      <rect x="28" y="-2" width="19" height="3" rx="0.5" fill="#000"/>
      <rect x="28" y="3" width="19" height="3" rx="0.5" fill="#000"/>
    </g>
    <g transform="translate(100,70) rotate(125)">
      <rect x="28" y="-7" width="8.5" height="3" rx="0.5" fill="#000"/>
      <rect x="38.5" y="-7" width="8.5" height="3" rx="0.5" fill="#000"/>
      <rect x="28" y="-2" width="8.5" height="3" rx="0.5" fill="#000"/>
      <rect x="38.5" y="-2" width="8.5" height="3" rx="0.5" fill="#000"/>
      <rect x="28" y="3" width="8.5" height="3" rx="0.5" fill="#000"/>
      <rect x="38.5" y="3" width="8.5" height="3" rx="0.5" fill="#000"/>
    </g>
    <g transform="translate(100,70) rotate(55)">
      <rect x="28" y="-7" width="8.5" height="3" rx="0.5" fill="#000"/>
      <rect x="38.5" y="-7" width="8.5" height="3" rx="0.5" fill="#000"/>
      <rect x="28" y="-2" width="19" height="3" rx="0.5" fill="#000"/>
      <rect x="28" y="3" width="8.5" height="3" rx="0.5" fill="#000"/>
      <rect x="38.5" y="3" width="8.5" height="3" rx="0.5" fill="#000"/>
    </g>
    <g transform="translate(100,70) rotate(-125)">
      <rect x="28" y="-7" width="19" height="3" rx="0.5" fill="#000"/>
      <rect x="28" y="-2" width="8.5" height="3" rx="0.5" fill="#000"/>
      <rect x="38.5" y="-2" width="8.5" height="3" rx="0.5" fill="#000"/>
      <rect x="28" y="3" width="19" height="3" rx="0.5" fill="#000"/>
    </g>
  </g>
  <rect x="6" y="6" width="188" height="128" rx="9" ry="9" fill="none" stroke="#1a2744" stroke-width="5" stroke-linejoin="round"/>
</svg>