<svg xmlns="http://www.w3.org/2000/svg" viewBox="0 0 400 280">
  <defs>
    <clipPath id="flagClip">
      <rect x="12" y="12" width="376" height="256" rx="18" ry="18"/>
    </clipPath>
  </defs>
  <g clip-path="url(#flagClip)">
    <!-- Green background -->
    <rect x="12" y="12" width="376" height="256" fill="#009c3b"/>
    <!-- Yellow diamond -->
    <polygon points="200,32 370,140 200,248 30,140" fill="#ffdf00"/>
    <!-- Blue circle -->
    <circle cx="200" cy="140" r="62" fill="#002776"/>
    <!-- White band across circle -->
    <path d="M145,150 Q200,120 255,150 Q200,135 145,150Z" fill="#ffffff" stroke="#ffffff" stroke-width="2"/>
    <!-- Stars (simplified - a few decorative stars) -->
    <g fill="#ffffff">
      <polygon points="170,115 172,121 178,121 173,125 175,131 170,127 165,131 167,125 162,121 168,121" transform="scale(0.6) translate(110,60)"/>
      <polygon points="210,160 212,166 218,166 213,170 215,176 210,172 205,176 207,170 202,166 208,166" transform="scale(0.6) translate(130,110)"/>
      <polygon points="190,170 192,176 198,176 193,180 195,186 190,182 185,186 187,180 182,176 188,176" transform="scale(0.6) translate(115,120)"/>
      <polygon points="230,145 232,151 238,151 233,155 235,161 230,157 225,161 227,155 222,151 228,151" transform="scale(0.6) translate(150,90)"/>
      <polygon points="180,180 182,186 188,186 183,190 185,196 180,192 175,196 177,190 172,186 178,186" transform="scale(0.5) translate(150,130)"/>
    </g>
  </g>
  <!-- Thick rounded border -->
  <rect x="12" y="12" width="376" height="256" rx="18" ry="18" fill="none" stroke="#1a2744" stroke-width="10" stroke-linejoin="round"/>
</svg>